<?xml version="1.0" standalone="no"?>
<!DOCTYPE svg PUBLIC "-//W3C//DTD SVG 20010904//EN"
 "http://www.w3.org/TR/2001/REC-SVG-20010904/DTD/svg10.dtd">
<svg version="1.0" xmlns="http://www.w3.org/2000/svg"
 width="700.000000pt" height="700.000000pt" viewBox="0 0 700.000000 700.000000"
 preserveAspectRatio="xMidYMid meet">
<metadata>
Created by potrace 1.11, written by Peter Selinger 2001-2013
</metadata>
<g transform="translate(0.000000,700.000000) scale(0.100000,-0.100000)"
fill="#000000" stroke="none">
<path d="M3304 6940 c-1229 -71 -2324 -789 -2883 -1893 -338 -667 -446 -1439
-305 -2192 155 -838 631 -1597 1329 -2119 766 -575 1742 -799 2700 -620 1041
193 1949 878 2434 1837 487 961 487 2133 0 3094 -485 959 -1393 1644 -2434
1837 -176 33 -269 44 -470 56 -184 11 -178 11 -371 0z m279 -1364 c45 -18 92
-83 115 -155 49 -162 -6 -523 -125 -818 -148 -368 -306 -524 -381 -376 -30 59
-34 94 -17 143 31 88 66 237 80 341 18 132 7 296 -25 381 -23 62 -86 140 -132
164 -29 15 -30 14 -86 -34 -478 -416 -903 -1313 -1016 -2148 -37 -268 -30
-548 18 -736 50 -198 116 -269 263 -287 168 -20 358 66 537 244 247 245 422
630 489 1073 8 54 10 92 4 92 -5 0 -75 -11 -156 -25 -215 -36 -500 -74 -603
-82 l-91 -6 7 108 c9 148 17 160 108 175 186 30 465 106 976 266 183 57 341
104 350 104 10 0 29 -11 42 -25 47 -50 37 -192 -21 -306 -31 -62 -62 -92 -113
-109 -32 -10 -34 -14 -89 -188 -68 -214 -86 -327 -94 -577 -6 -213 5 -344 42
-492 44 -173 113 -281 210 -329 50 -24 63 -26 133 -21 42 3 87 9 99 12 l23 7
-16 -53 c-55 -186 -170 -312 -300 -327 -185 -20 -360 141 -447 413 -33 102
-53 192 -62 278 -4 37 -11 69 -15 72 -3 2 -34 -37 -68 -88 -273 -413 -613
-626 -921 -578 -467 73 -776 672 -748 1451 13 348 83 706 222 1125 85 257 134
380 232 576 113 226 222 387 348 513 155 156 279 218 436 218 105 0 150 -12
258 -64 l84 -42 66 36 c169 93 286 115 384 74z m1336 -1311 c16 -8 34 -28 41
-45 11 -27 8 -48 -29 -191 -57 -216 -71 -300 -78 -459 -4 -99 -1 -159 10 -223
9 -49 18 -92 21 -95 4 -3 36 0 74 7 324 62 538 80 740 62 328 -27 528 -126
614 -300 34 -68 32 -185 -3 -261 -46 -97 -164 -192 -267 -215 -32 -7 -33 -6
-27 22 4 15 8 34 11 41 7 23 -16 112 -43 169 -37 75 -125 161 -210 205 -188
99 -431 119 -743 62 -91 -17 -92 -17 -86 -43 4 -14 9 -82 13 -151 4 -98 2
-145 -11 -210 -62 -306 -303 -502 -621 -503 -150 -1 -254 35 -343 116 -60 56
-84 112 -83 193 3 194 175 404 514 626 59 39 107 75 107 80 0 4 -18 62 -40
127 -55 166 -62 199 -69 344 l-6 127 -70 -127 c-78 -142 -299 -483 -313 -483
-14 0 -38 32 -50 67 -10 31 -7 39 47 125 61 98 199 350 345 631 95 183 113
202 226 255 123 58 269 79 329 47z"/>
<path d="M4564 2899 c-100 -63 -162 -143 -189 -244 -19 -75 -19 -108 1 -175
18 -60 65 -115 108 -126 76 -19 175 87 197 213 8 47 7 80 -5 152 -18 105 -46
211 -56 211 -3 0 -28 -14 -56 -31z"/>
</g>
</svg>
