<?xml version="1.0" standalone="no"?>
<!DOCTYPE svg PUBLIC "-//W3C//DTD SVG 20010904//EN"
 "http://www.w3.org/TR/2001/REC-SVG-20010904/DTD/svg10.dtd">
<svg version="1.0" xmlns="http://www.w3.org/2000/svg"
 width="16.000000pt" height="16.000000pt" viewBox="0 0 16.000000 16.000000"
 preserveAspectRatio="xMidYMid meet">
<metadata>
Created by potrace 1.11, written by Peter Selinger 2001-2013
</metadata>
<g transform="translate(0.000000,16.000000) scale(0.002286,-0.002286)"
fill="#000000" stroke="none">
<path d="M3285 6994 c-305 -30 -421 -48 -631 -99 -476 -117 -944 -348 -1339
-661 -141 -113 -436 -408 -549 -549 -409 -516 -656 -1108 -742 -1780 -25 -196
-25 -614 0 -810 86 -672 333 -1264 742 -1780 113 -141 408 -436 549 -549 516
-409 1108 -656 1780 -742 196 -25 614 -25 810 0 672 86 1264 333 1780 742 141
113 436 408 549 549 409 516 656 1108 742 1780 25 196 25 614 0 810 -86 672
-333 1264 -742 1780 -113 141 -408 436 -549 549 -515 408 -1109 657 -1775 741
-117 15 -536 28 -625 19z m526 -1399 c194 -17 336 -43 498 -90 157 -46 236
-78 234 -96 -20 -167 -118 -856 -122 -861 -3 -4 -37 2 -76 13 -301 84 -737
114 -905 60 -126 -39 -219 -120 -276 -237 -78 -161 -104 -357 -111 -838 -9
-576 31 -832 163 -1042 75 -117 149 -156 317 -162 l117 -4 0 285 0 286 -142 3
-143 3 -3 443 -2 442 640 0 640 0 0 -1129 0 -1128 -182 -36 c-494 -98 -751
-120 -1114 -98 -391 23 -626 85 -830 216 -408 264 -574 803 -574 1864 0 242
25 649 50 820 87 592 309 950 704 1137 290 137 675 188 1117 149z"/>
</g>
</svg>
