<svg xmlns="http://www.w3.org/2000/svg" width="1679" height="284" viewBox="0 0 1679 284">
  <g fill="#FFFFFF" fill-rule="evenodd">
    <path d="M1227.1958.9946C1243.1638 3.3076 1245.0888 3.2626 1254.0088 5.0246 1256.6018 5.5366 1259.1058 6.5006 1262.3128 7.4536 1260.1398 23.3516 1257.9658 39.2646 1255.7428 55.5276 1250.5698 54.5256 1245.6058 53.4446 1240.5978 52.6376 1237.4888 52.1356 1234.3148 51.8476 1231.1668 51.8126 1220.2768 51.6916 1217.1858 54.6456 1216.8548 65.5346 1216.6818 71.1966 1216.7988 76.8666 1216.8078 82.5326 1216.8088 83.1836 1216.9658 83.8336 1217.1318 85.1236L1243.5398 85.1236 1243.5398 131.9506 1216.8408 131.9506 1216.8408 276.7656 1150.8018 276.7656 1150.8018 131.9116 1134.9758 131.9116C1136.9048 119.0776 1138.6678 106.7386 1140.6408 94.4336 1142.7578 84.4106 1142.2938 85.5356 1150.7998 84.6546 1150.7998 77.9516 1150.6608 71.1436 1150.8348 64.3446 1151.0478 56.0276 1150.7998 47.6096 1152.0238 39.4256 1155.2938 17.5566 1167.5718 5.6706 1189.5078 2.0156 1193.4078 1.3656 1200.8438-.0054 1205.1038-.0004 1213.7708-.0004 1212.0598-.0054 1227.1958.9946zM111.8716 221.7192L111.8716 184.4352 93.4496 184.4352 93.4496 126.3162 176.6856 126.3162 176.6856 273.7042C146.8236 280.9302 116.6266 285.0752 85.7516 282.4502 73.0986 281.3742 60.6356 279.4002 48.8026 274.6032 29.1056 266.6182 17.1636 251.5442 10.2006 231.9742 3.3066 212.6002 1.0956 192.4222.5046 172.0822-.2634 145.6012-.6504 119.0932 3.1316 92.7462 5.3426 77.3442 9.1366 62.4152 16.6866 48.6632 27.3506 29.2402 44.0416 17.2022 65.1776 12.3632 99.4806 4.5102 133.5706 5.8682 166.8796 18.2382 169.3786 19.1652 170.6826 20.1612 170.2386 23.1822 167.6286 40.9542 165.1966 58.7532 162.6106 77.2092 160.7186 76.8462 159.0106 76.5962 157.3426 76.1862 140.9526 72.1522 124.3906 69.1552 107.4576 70.7472 89.4416 72.4422 79.9796 80.2052 76.5816 98.0112 70.3126 130.8582 70.1386 163.8702 77.1426 196.7402 77.2806 197.3912 77.4106 198.0462 77.6096 198.6792 83.3906 217.0482 91.9106 222.8832 111.8716 221.7192zM1128.8481 276.8246L1072.5131 276.8246C1071.4081 273.9066 1070.3081 271.0046 1069.3831 268.5616 1060.5001 271.5856 1052.0851 275.1696 1043.3161 277.2696 1029.5301 280.5716 1015.5401 280.4366 1001.8871 276.0866 983.4811 270.2206 975.9911 255.8536 973.3561 238.1466 972.4281 231.9146 972.1481 225.5376 972.1331 219.2256 972.0311 176.2336 972.0761 133.2416 972.0861 90.2496 972.0861 88.7846 972.2231 87.3196 972.3101 85.5656L1038.0651 85.5656 1038.0651 91.3416C1038.0721 130.1676 1038.0491 168.9946 1038.1291 207.8206 1038.1381 211.9576 1038.5351 216.1226 1039.1241 220.2206 1039.8171 225.0506 1043.1681 227.7326 1047.7681 227.6196 1052.1641 227.5116 1056.6371 226.5496 1060.8451 225.2256 1062.0531 224.8456 1063.1171 221.9156 1063.1291 220.1466 1063.2821 197.8186 1063.2291 175.4886 1063.2291 153.1596L1063.2291 91.1716 1063.2291 85.5346 1128.8481 85.5346 1128.8481 276.8246zM847.7769 90.2548C844.8289 106.5358 841.9879 122.2318 839.0649 138.3758 833.3169 136.7058 827.8849 134.8828 822.3339 133.5648 810.9199 130.8538 799.3819 129.5368 787.7149 131.9328 786.1109 132.2628 784.5049 132.8348 783.0459 133.5798 776.4799 136.9328 775.6719 143.7008 781.7579 147.8098 785.6869 150.4628 790.3279 152.1228 794.7649 153.9438 805.3429 158.2858 816.4289 161.6218 826.5119 166.8888 843.6719 175.8528 851.8699 191.0458 853.2819 210.1928 854.2509 223.3388 853.2159 236.1828 847.6799 248.2658 839.7299 265.6178 825.0739 274.5718 807.1759 278.3008 776.8359 284.6248 747.0029 281.4808 717.2279 272.1218 720.1439 256.0038 723.0029 240.1998 725.9339 223.9918 732.1359 225.6228 737.9229 227.8548 743.8909 228.5598 755.0639 229.8818 766.3369 230.4108 777.5809 231.0358 779.4589 231.1388 781.5139 230.3058 783.2939 229.4848 790.3049 226.2498 791.3569 218.7738 784.9639 214.4928 780.6309 211.5888 775.4439 209.9108 770.5499 207.9028 760.5799 203.8118 750.1879 200.5758 740.6299 195.6948 726.7239 188.5948 718.0389 176.8818 714.8999 161.3898 711.5419 144.8128 712.3559 128.5388 719.6149 113.0718 727.2129 96.8838 741.0709 88.2958 757.7919 84.4738 788.0839 77.5498 817.9099 80.4928 847.7769 90.2548zM864.7993 131.912L848.9983 131.912C850.6003 121.198 852.1383 110.895 853.6813 100.594 854.1733 97.303 855.0003 94.023 855.0963 90.722 855.2183 86.527 856.7233 84.506 861.1223 85.226 862.0683 85.381 863.0813 85.115 864.6433 85.001L864.6433 49.235C886.8043 46.87 908.4253 44.564 930.6703 42.191L930.6703 85.163 960.7293 85.163 960.7293 131.984 931.1473 131.984C930.9853 133.303 930.8013 134.1 930.8013 134.896 930.8133 160.394 930.8343 185.891 930.8843 211.388 930.8873 213.217 930.9963 215.062 931.2523 216.872 932.2983 224.281 935.8063 227.655 943.2403 227.287 949.8123 226.962 956.3383 225.749 963.5063 224.851 965.8513 239.97 968.2603 255.5 970.7053 271.268 953.5583 277.136 936.4903 280.5 918.8833 279.914 910.4643 279.634 901.8873 278.81 893.7373 276.793 877.5873 272.798 868.9463 261.331 866.3613 245.344 865.2263 238.316 864.9053 231.096 864.8653 223.959 864.7043 195.463 864.7993 166.965 864.7993 138.468L864.7993 131.912zM1345.1958.9946C1361.1638 3.3076 1363.0888 3.2626 1372.0088 5.0246 1374.6018 5.5366 1377.1058 6.5006 1380.3128 7.4536 1378.1398 23.3516 1375.9658 39.2646 1373.7428 55.5276 1368.5698 54.5256 1363.6058 53.4446 1358.5978 52.6376 1355.4888 52.1356 1352.3148 51.8476 1349.1668 51.8126 1338.2768 51.6916 1335.1858 54.6456 1334.8548 65.5346 1334.6818 71.1966 1334.7988 76.8666 1334.8078 82.5326 1334.8088 83.1836 1334.9658 83.8336 1335.1318 85.1236L1361.5398 85.1236 1361.5398 131.9506 1334.8408 131.9506 1334.8408 276.7656 1268.8018 276.7656 1268.8018 131.9116 1252.9758 131.9116C1254.9048 119.0776 1256.6678 106.7386 1258.6408 94.4336 1260.7578 84.4106 1260.2938 85.5356 1268.7998 84.6546 1268.7998 77.9516 1268.6608 71.1436 1268.8348 64.3446 1269.0478 56.0276 1268.7998 47.6096 1270.0238 39.4256 1273.2938 17.5566 1285.5718 5.6706 1307.5078 2.0156 1311.4078 1.3656 1318.8438-.0054 1323.1038-.0004 1331.7708-.0004 1330.0598-.0054 1345.1958.9946zM646.4843 276.6548C645.6143 274.1418 644.7013 271.5028 643.9633 269.3668 635.6953 271.9308 627.6653 275.1358 619.3293 276.8838 582.2003 284.6708 553.8113 266.7268 544.2443 229.9988 538.4133 207.6098 538.4583 184.8608 539.8313 162.0298 540.7233 147.1998 542.8313 132.5808 548.3873 118.6528 557.2213 96.5088 574.2013 85.3008 597.2213 82.0048 610.5493 80.0958 623.7213 80.6268 637.1703 84.2318L637.1703 11.6818C659.1733 9.3378 680.8913 7.0248 702.9663 4.6738L702.9663 276.6548 646.4843 276.6548zM348.0765 236.3935C338.5775 262.0005 319.5555 275.7725 293.1665 279.8745 276.9425 282.3955 260.6515 282.0995 244.4765 278.9265 217.6405 273.6625 200.1775 257.7825 193.7185 231.3845 185.6475 198.3915 185.2665 165.0335 194.2235 132.0795 202.2145 102.6745 224.2985 84.9535 254.5795 81.9475 270.2565 80.3905 285.7715 80.4735 301.2595 83.7395 328.2025 89.4225 344.8215 106.0525 350.8365 132.3895 354.3715 147.8625 355.7975 164 356.2445 179.8885 356.0085 199.0805 354.8475 218.1405 348.0765 236.3935zM362.1365 184.8758C362.0885 165.3098 363.2425 148.7588 367.9695 132.6088 375.6965 106.2098 392.3615 89.3178 419.6775 83.5908 439.3895 79.4588 459.1165 79.6788 478.5875 84.4828 503.7995 90.7018 519.1535 107.4288 524.9315 132.2878 532.4645 164.6928 532.6875 197.3278 524.2255 229.6788 516.7005 258.4468 494.9025 276.7068 465.2675 280.1408 448.9335 282.0348 432.7225 281.9908 416.6055 278.5058 390.1875 272.7928 374.1755 256.3188 367.3525 230.5268 363.1485 214.6358 362.0965 198.3768 362.1365 184.8758zM637.2773 179.5278C637.2773 165.2148 637.3293 150.9028 637.2043 136.5918 637.1903 135.0058 636.6473 132.7038 635.5323 131.9598 625.6753 125.3838 610.7533 130.9178 609.2683 142.4448 607.5753 155.5848 607.1493 168.9518 607.1133 182.2218 607.0843 193.1558 607.7873 204.1868 609.3563 215.0028 610.7413 224.5518 616.8003 228.4288 626.4643 227.8058 628.6103 227.6678 630.7363 227.1898 632.8613 226.8098 636.1143 226.2298 637.4263 224.5358 637.3683 220.9658 637.1453 207.1568 637.2773 193.3408 637.2773 179.5278zM289.6255 181.5365C289.4735 181.5305 289.3205 181.5235 289.1685 181.5175 289.1685 174.5205 289.1685 167.5235 289.1675 160.5265 289.1675 160.0265 289.2005 159.5195 289.1355 159.0275 288.4995 154.2585 288.2645 149.3845 287.0935 144.7485 285.6025 138.8505 282.3365 134.1435 275.7015 132.9455 265.2805 131.0645 256.9605 136.6075 256.4405 148.3735 255.4875 169.9475 256.0605 191.5925 256.2085 213.2075 256.2265 215.7585 257.3195 218.4105 258.3555 220.8275 261.3755 227.8725 267.9555 231.0795 275.4805 229.4325 282.5865 227.8765 287.2155 222.6685 288.0795 213.4335 289.0685 202.8465 289.1495 192.1725 289.6255 181.5365zM428.6885 180.7348C428.8705 180.7418 429.0515 180.7488 429.2325 180.7558 429.2325 188.9188 428.8665 197.1038 429.3645 205.2368 429.6855 210.4718 430.6695 215.8488 432.4425 220.7708 435.0355 227.9678 441.9375 231.0758 449.4555 229.4398 456.5735 227.8908 461.6705 222.6848 462.0075 213.4638 462.7475 193.1938 462.5245 172.8848 462.5315 152.5918 462.5325 149.8148 461.9135 146.9338 461.0375 144.2798 459.1935 138.6948 456.1585 134.0948 449.7285 132.9428 439.2995 131.0718 431.6725 136.5868 430.3325 148.3528 429.1105 159.0698 429.1855 169.9348 428.6885 180.7348zM1526.75702 85L1578.26972 85C1586.55613 107.955623 1594.84253 130.911501 1603.12893 153.867124 1603.22303 153.849811 1603.31713 153.832498 1603.41123 153.81544 1611.09657 130.876875 1618.78191 107.938565 1626.46725 85L1679 85 1679 276.616807 1629.77554 276.616807 1629.77554 177.007333C1629.70541 176.99333 1629.63528 176.979581 1629.56515 176.965578 1626.06841 189.837205 1622.57166 202.708577 1619.0864 215.537176 1618.82373 215.573075 1618.69852 215.605154 1618.57331 215.605154 1608.16162 215.608464 1597.74994 215.598789 1587.33851 215.631378 1586.55281 215.633924 1586.33885 215.292758 1586.16774 214.656 1583.62908 205.214873 1581.07665 195.777309 1578.5255 186.339236 1577.74847 183.464532 1576.96584 180.591356 1576.1855 177.717416 1576.10109 177.732183 1576.01668 177.74644 1575.93252 177.760953L1575.93252 276.629537 1526.75702 276.629537 1526.75702 85zM1513.63102 85L1513.63102 127.242186 1463.96997 127.242186 1463.96997 163.613519 1512.27129 163.613519 1512.27129 205.885238 1463.97431 205.885238 1463.97431 276.622918 1414.68584 276.622918 1414.68584 85 1513.63102 85zM1354 276.714829L1354 235.724009 1397.26455 235.724009 1397.26455 276.714829 1354 276.714829z"/>
  </g>
</svg>
