<?xml version="1.0" encoding="UTF-8"?>
<svg width="1679px" height="284px" viewBox="0 0 1679 284" xmlns="http://www.w3.org/2000/svg" xmlns:xlink="http://www.w3.org/1999/xlink" version="1.1">
 <!-- Generated by Pixelmator Pro 2.0.6 -->
 <g id="group">
  <path id="Path" d="M1227.196 0.995 C1243.164 3.308 1245.089 3.263 1254.009 5.025 1256.602 5.537 1259.106 6.501 1262.313 7.454 1260.14 23.352 1257.966 39.265 1255.743 55.528 1250.57 54.526 1245.606 53.445 1240.598 52.638 1237.489 52.136 1234.315 51.848 1231.167 51.813 1220.277 51.692 1217.186 54.646 1216.855 65.535 1216.682 71.197 1216.799 76.867 1216.808 82.533 1216.809 83.184 1216.966 83.834 1217.132 85.124 L1243.54 85.124 1243.54 131.951 1216.841 131.951 1216.841 276.766 1150.802 276.766 1150.802 131.912 1134.976 131.912 C1136.905 119.078 1138.668 106.739 1140.641 94.434 1142.758 84.411 1142.294 85.536 1150.8 84.655 1150.8 77.952 1150.661 71.144 1150.835 64.345 1151.048 56.028 1150.8 47.61 1152.024 39.426 1155.294 17.557 1167.572 5.671 1189.508 2.016 1193.408 1.366 1200.844 -0.005 1205.104 -0 1213.771 -0 1212.06 -0.005 1227.196 0.995 Z M111.872 221.719 L111.872 184.435 93.45 184.435 93.45 126.316 176.686 126.316 176.686 273.704 C146.824 280.93 116.627 285.075 85.752 282.45 73.099 281.374 60.636 279.4 48.803 274.603 29.106 266.618 17.164 251.544 10.201 231.974 3.307 212.6 1.096 192.422 0.505 172.082 -0.263 145.601 -0.65 119.093 3.132 92.746 5.343 77.344 9.137 62.415 16.687 48.663 27.351 29.24 44.042 17.202 65.178 12.363 99.481 4.51 133.571 5.868 166.88 18.238 169.379 19.165 170.683 20.161 170.239 23.182 167.629 40.954 165.197 58.753 162.611 77.209 160.719 76.846 159.011 76.596 157.343 76.186 140.953 72.152 124.391 69.155 107.458 70.747 89.442 72.442 79.98 80.205 76.582 98.011 70.313 130.858 70.139 163.87 77.143 196.74 77.281 197.391 77.411 198.046 77.61 198.679 Z M1128.848 276.825 L1072.513 276.825 C1071.408 273.907 1070.308 271.005 1069.383 268.562 1060.5 271.586 1052.085 275.17 1043.316 277.27 1029.53 280.572 1015.54 280.437 1001.887 276.087 983.481 270.221 975.991 255.854 973.356 238.147 972.428 231.915 972.148 225.538 972.133 219.226 972.031 176.234 972.076 133.242 972.086 90.25 972.086 88.785 972.223 87.32 972.31 85.566 L1038.065 85.566 1038.065 91.342 C1038.072 130.168 1038.049 168.995 1038.129 207.821 1038.138 211.958 1038.535 216.123 1039.124 220.221 1039.817 225.051 1043.168 227.733 1047.768 227.62 1052.164 227.512 1056.637 226.55 1060.845 225.226 1062.053 224.846 1063.117 221.916 1063.129 220.147 1063.282 197.819 1063.229 175.489 1063.229 153.16 L1063.229 91.172 1063.229 85.535 1128.848 85.535 Z M847.777 90.255 C844.829 106.536 841.988 122.232 839.065 138.376 833.317 136.706 827.885 134.883 822.334 133.565 810.92 130.854 799.382 129.537 787.715 131.933 786.111 132.263 784.505 132.835 783.046 133.58 776.48 136.933 775.672 143.701 781.758 147.81 785.687 150.463 790.328 152.123 794.765 153.944 805.343 158.286 816.429 161.622 826.512 166.889 843.672 175.853 851.87 191.046 853.282 210.193 854.251 223.339 853.216 236.183 847.68 248.266 839.73 265.618 825.074 274.572 807.176 278.301 776.836 284.625 747.003 281.481 717.228 272.122 720.144 256.004 723.003 240.2 725.934 223.992 732.136 225.623 737.923 227.855 743.891 228.56 755.064 229.882 766.337 230.411 777.581 231.036 779.459 231.139 781.514 230.306 783.294 229.485 790.305 226.25 791.357 218.774 784.964 214.493 780.631 211.589 775.444 209.911 770.55 207.903 760.58 203.812 750.188 200.576 740.63 195.695 726.724 188.595 718.039 176.882 714.9 161.39 711.542 144.813 712.356 128.539 719.615 113.072 727.213 96.884 741.071 88.296 757.792 84.474 788.084 77.55 817.91 80.493 847.777 90.255 Z M864.799 131.912 L848.998 131.912 C850.6 121.198 852.138 110.895 853.681 100.594 854.173 97.303 855 94.023 855.096 90.722 855.218 86.527 856.723 84.506 861.122 85.226 862.068 85.381 863.081 85.115 864.643 85.001 L864.643 49.235 C886.804 46.87 908.425 44.564 930.67 42.191 L930.67 85.163 960.729 85.163 960.729 131.984 931.147 131.984 C930.985 133.303 930.801 134.1 930.801 134.896 930.813 160.394 930.834 185.891 930.884 211.388 930.887 213.217 930.996 215.062 931.252 216.872 932.298 224.281 935.806 227.655 943.24 227.287 949.812 226.962 956.338 225.749 963.506 224.851 965.851 239.97 968.26 255.5 970.705 271.268 953.558 277.136 936.49 280.5 918.883 279.914 910.464 279.634 901.887 278.81 893.737 276.793 877.587 272.798 868.946 261.331 866.361 245.344 865.226 238.316 864.905 231.096 864.865 223.959 864.704 195.463 864.799 166.965 864.799 138.468 Z M1345.196 0.995 C1361.164 3.308 1363.089 3.263 1372.009 5.025 1374.602 5.537 1377.106 6.501 1380.313 7.454 1378.14 23.352 1375.966 39.265 1373.743 55.528 1368.57 54.526 1363.606 53.445 1358.598 52.638 1355.489 52.136 1352.315 51.848 1349.167 51.813 1338.277 51.692 1335.186 54.646 1334.855 65.535 1334.682 71.197 1334.799 76.867 1334.808 82.533 1334.809 83.184 1334.966 83.834 1335.132 85.124 L1361.54 85.124 1361.54 131.951 1334.841 131.951 1334.841 276.766 1268.802 276.766 1268.802 131.912 1252.976 131.912 C1254.905 119.078 1256.668 106.739 1258.641 94.434 1260.758 84.411 1260.294 85.536 1268.8 84.655 1268.8 77.952 1268.661 71.144 1268.835 64.345 1269.048 56.028 1268.8 47.61 1270.024 39.426 1273.294 17.557 1285.572 5.671 1307.508 2.016 1311.408 1.366 1318.844 -0.005 1323.104 -0 1331.771 -0 1330.06 -0.005 1345.196 0.995 Z M646.484 276.655 C645.614 274.142 644.701 271.503 643.963 269.367 635.695 271.931 627.665 275.136 619.329 276.884 582.2 284.671 553.811 266.727 544.244 229.999 538.413 207.61 538.458 184.861 539.831 162.03 540.723 147.2 542.831 132.581 548.387 118.653 557.221 96.509 574.201 85.301 597.221 82.005 610.549 80.096 623.721 80.627 637.17 84.232 L637.17 11.682 C659.173 9.338 680.891 7.025 702.966 4.674 L702.966 276.655 Z M348.077 236.393 C338.578 262 319.556 275.772 293.167 279.874 276.943 282.395 260.652 282.099 244.477 278.926 217.641 273.662 200.178 257.782 193.719 231.384 185.648 198.391 185.267 165.033 194.224 132.079 202.215 102.674 224.299 84.953 254.58 81.947 270.257 80.39 285.772 80.473 301.26 83.739 328.203 89.422 344.822 106.052 350.837 132.389 354.372 147.862 355.798 164 356.245 179.888 356.009 199.08 354.848 218.14 348.077 236.393 Z M362.137 184.876 C362.089 165.31 363.242 148.759 367.97 132.609 375.697 106.21 392.362 89.318 419.678 83.591 439.389 79.459 459.117 79.679 478.587 84.483 503.799 90.702 519.154 107.429 524.932 132.288 532.465 164.693 532.688 197.328 524.226 229.679 516.701 258.447 494.902 276.707 465.268 280.141 448.934 282.035 432.723 281.991 416.605 278.506 390.188 272.793 374.176 256.319 367.353 230.527 363.148 214.636 362.097 198.377 362.137 184.876 Z M637.277 179.528 C637.277 165.215 637.329 150.903 637.204 136.592 637.19 135.006 636.647 132.704 635.532 131.96 625.675 125.384 610.753 130.918 609.268 142.445 607.575 155.585 607.149 168.952 607.113 182.222 607.084 193.156 607.787 204.187 609.356 215.003 610.741 224.552 616.8 228.429 626.464 227.806 628.61 227.668 630.736 227.19 632.861 226.81 636.114 226.23 637.426 224.536 637.368 220.966 637.145 207.157 637.277 193.341 637.277 179.528 Z M289.626 181.536 C289.474 181.53 289.321 181.523 289.169 181.517 289.169 174.52 289.169 167.523 289.168 160.526 289.168 160.026 289.201 159.519 289.136 159.027 288.5 154.258 288.265 149.384 287.094 144.748 285.603 138.85 282.337 134.143 275.702 132.945 265.281 131.064 256.961 136.607 256.441 148.373 255.488 169.947 256.061 191.592 256.209 213.207 256.227 215.758 257.32 218.41 258.356 220.827 261.376 227.872 267.956 231.079 275.481 229.432 282.587 227.876 287.216 222.668 288.08 213.433 289.069 202.846 289.15 192.172 289.626 181.536 Z M428.689 180.735 C428.871 180.742 429.052 180.749 429.233 180.756 429.233 188.919 428.867 197.104 429.365 205.237 429.686 210.472 430.67 215.849 432.443 220.771 435.036 227.968 441.938 231.076 449.456 229.44 456.574 227.891 461.671 222.685 462.008 213.464 462.748 193.194 462.525 172.885 462.532 152.592 462.533 149.815 461.914 146.934 461.038 144.28 459.194 138.695 456.159 134.095 449.729 132.943 439.3 131.072 431.673 136.587 430.333 148.353 429.111 159.07 429.186 169.935 428.689 180.735 Z" fill="#828692" fill-opacity="1" stroke="none"/>
 </g>
</svg>
