<?xml version="1.0" encoding="utf-8"?>
<!--Generator: Adobe Illustrator 17.1.0, SVG Export Plug-In . SVG Version: 6.00 Build 0)  -->
<!DOCTYPE svg PUBLIC "-//W3C//DTD SVG 1.1//EN" "http://www.w3.org/Graphics/SVG/1.1/DTD/svg11.dtd">
<svg version="1.1" id="Layer_1" xmlns="http://www.w3.org/2000/svg" xmlns:xlink="http://www.w3.org/1999/xlink" x="0px" y="0px"
	 viewBox="0 0 601.135 144.168" enable-background="new 0 0 601.135 144.168" xml:space="preserve">
<g>
	<path fill="#FFFFFF" d="M485.788,112.968c-2.73,0-4.762,2.159-4.762,4.762c0,2.667,2.032,4.762,4.762,4.762
		c2.667,0,4.762-2.095,4.762-4.762C490.55,115.128,488.455,112.968,485.788,112.968"/>
	<path fill="#FFFFFF" d="M528.028,75.375h-29.017c-0.845,0-1.529,0.684-1.529,1.529v44.636c0,0.845,0.684,1.529,1.529,1.529h7.81
		c0.845,0,1.529-0.684,1.529-1.529v-15.869h17.266c0.846,0,1.529-0.684,1.529-1.529v-6.984c0-0.845-0.683-1.529-1.529-1.529H508.35
		v-9.958h19.678c0.845,0,1.529-0.684,1.529-1.529v-7.238C529.557,76.059,528.873,75.375,528.028,75.375"/>
	<path fill="#FFFFFF" d="M583.095,76.669c-0.024-0.827-0.702-1.486-1.529-1.486h-3.493c-0.555,0-1.066,0.3-1.336,0.786
		l-16.775,30.138l-17.195-30.152c-0.273-0.478-0.779-0.772-1.329-0.772h-3.493c-0.827,0-1.505,0.659-1.529,1.486l-1.269,44.827
		c-0.01,0.414,0.145,0.812,0.433,1.11c0.288,0.295,0.682,0.463,1.096,0.463h7.683c0.842,0,1.524-0.68,1.529-1.522l0.095-19.254
		l11.064,20.359c0.267,0.493,0.784,0.799,1.344,0.799h2.729c0.566,0,1.087-0.314,1.352-0.814l10.942-20.675l0.147,19.589
		c0.006,0.84,0.688,1.518,1.529,1.518h7.745h0.03c0.845,0,1.529-0.684,1.529-1.53c0-0.119-0.013-0.235-0.039-0.347L583.095,76.669z"
		/>
	<path fill="#FFFFFF" d="M77.588,117.968c-2.028-8.333-2.289-18.852,0.19-32.274c1.858-5.463,3.2-9.325,4.059-12.129
		c0.781-0.182,1.381-0.338,1.711-0.454c5.734-2.064,7.853-16.853,1.944-15.65c-0.246,0.05-38.956,12.669-49.793,13.591
		c-2.487,0.378-1.806,4.981-2.408,9.592c-0.103,1.045,17.306-1.472,31.726-3.917c-0.621,3.019-1.027,6.131-1.386,8.854
		c-9.083,40.643-39.835,50.622-45.451,35.485C7.593,92.544,29.305,31.433,55.88,11.864c8.464,3.231,9.511,17.42,3.285,34.074
		c6.133,29.11,43.666-68.384-1.1-41.047C28.621-14.401,8.702,39.636,2.587,68.236c-13.64,64.241,29.566,99.354,61.48,47.645
		c3.031,34.094,26.523,35.446,30.746,14.313C85.699,133.821,79.868,127.954,77.588,117.968"/>
	<path fill="#FFFFFF" d="M600.578,51.891c-6.113-10.145-104.01,1.749-137.071,11.875c5.254-16.157,11.309-32.119,16.157-41.598
		c1.346-2.241,3.575-6.184,4.313-8.128c1.36-3.753-19.083-0.859-19.097,0.654c-4.183,6.48-8.98,18.296-13.146,31.829
		c-1.749,1.893-7.348,11.375-15.465,19.154c-3.07-4.056-8.442-5.172-16.606-1.421c5.987-19.588,13.226-39.268,19.034-51.032
		c1.221-2.231,4.475-7.636,5.302-10.089c1.449-4.265-20.355-1.019-20.369,0.495c-6.067,9.297-13.164,28.268-18.765,48.762
		c-4.89,6.656-17.302,23.672-24.602,31.021c0.63-10.25,6.613-23.036,10.649-34.921c5.539-8.596,5.693-11.63,4.589-12.935
		c-7.006-2.758-16.579-1.044-17.386,1.661c-4.394,12.163-8.136,22.895-9.651,33.084c-5.952,8.122-12.51,16.541-15.665,18.16
		c-2.123-8.283,6.36-31.581,9.509-40.128c4.493-7.385,5.024-10.448,3.707-11.231c-5.8-3.477-17.061-0.756-17.503,1.795
		c-4.7,10.279-7.594,19.666-9.082,27.867c-11.076,15.969-23.957,36.37-24.717,28.877c0.815-11.145,5.855-29.908,13.916-50.403
		c3.425-4.788,6.717-9.692,9.748-14.701c24.035-2.027,51.378-5.303,52.484-7.4c0.862-1.953,7.988-12.933,5.233-12.73
		c-0.377,0.028-27.206,5.156-51.97,9.25c2.298-4.703,3.97-9.362,5.276-13.867c2.679-9.771-19.585-4.223-22.424-1.745
		c-0.127,0.009-0.127,0.009-0.117,0.134c-0.116,0.134-0.241,0.144-0.232,0.269c-2.401,6.726-4.712,12.943-6.669,18.881
		c-4.858,0.738-8.983,1.168-11.739,1.371c-4.634,0.342-3.857,4.062-5.342,7.825c-0.099,0.385,5.558,0.221,14.087-0.283
		c-3.191,9.682-5.723,18.056-7.817,25.517c-5.032,6.921-10.505,12.993-15.836,17.543c-1.737-8.185-2.533-15.558,4.194-31.926
		c2.35-5.715-3.365-8.065-17.645-1.847c-0.356,0.279-0.937,0.951-1.499,1.874c-2.31,3.634-6.907,11.863-11.52,19.323
		c-0.216,0.098-0.428,0.239-0.625,0.468c-0.45,0.464-2.758,4.252-5.921,9.327c-0.292,0.387-0.585,0.775-0.864,1.124
		c0,0,0.015,0.078,0.04,0.197c-4.135,6.612-9.48,14.976-14.088,21.119c-1.266,1.604-3.755,5.441-4.523-1.556
		c-2.004-18.62,22.015-73.8,29.061-84.143c3.978-5.837-20.484-2.773-21.06-0.336c-5.865,14.414-10.109,28.582-13.571,41.434
		c-15.889-22.538-30.965-0.567-35.685,23.689c-3.371,2.881-6.848,4.911-10.065,5.004c4.552-28.802-18.277-46.264-26.893-29.884
		c-2.414,4.839-3.386,10.452-3.114,15.849c-1.944-0.738-4.323-0.562-7.363,0.921c-0.618,0.171-1.224,0.469-1.671,1.257
		c-2.549,4.723-4.559,9.91-5.675,15.282c-3.266,0.115-7.089-0.484-11.218-1.818c0.88-6.866,0.533-13.265-1.215-18.174
		c-5.216-14.352-21.003-21.753-27.122-9.084c-6.573,13.333,8.135,26.607,11.243,27.765c0.126-0.01,0.126-0.01,0.26,0.106
		c-0.463,15.906-9.732,40.521-15.459,32.882c-5.39-8.167-1.851-21.654,3.851-33.159c0.345-5.568-9.377-14.423-12.042-9.567
		c-9.777,17.726-9.088,44.127,0.806,50.199c1.202,0.919,2.222,1.095,3.706,0.734c16.035,5.619,29.343-13.752,34.327-33.266
		c4.12,1.207,7.943,1.807,11.71,1.654c-0.875,12.031,1.701,23.052,7.635,26.645c1.201,0.919,2.221,1.095,3.707,0.734
		c14.966,4.816,27.263-11.206,32.922-28.377c3.66-0.872,7.119-3.026,10.345-5.886c-1.46,20.031,5.123,37.717,25.235,28.832
		c3.467-2.523,4.971-6.036,6.762-9.065c2.453,7.629,9.921,13.249,13.845,6.662c8.29-13.467,14.565-25.222,21.133-37.363
		c6.43-8.605,9.344-13.392,11.382-17.058c-0.969,10.779,2.146,18.862,4.813,25.971c-53.306,26.983-5.665,46.142,9.086,24.144
		c5.566-8.221,5.002-15.862,4.276-23.995c2.859-2.227,6.637-5.656,10.744-9.736c-7.731,35.209,0.958,38.598,13.844,33.994
		c4.552-1.754,12.153-14.157,18.786-26.096c0.218,25.216,17.173,30.961,29.587,1.28c1.602,17.064,6.099,32.344,33.537-14.935
		c-5.916,25.648-8.671,50.795-3.5,60.08c17.427,31.338,46.434-29.625,41.07-54.547c3.713-4.305,6.994-9.334,9.561-13.806
		c-7.39,27.879-11.56,58.417-4.76,65.221c16.846,23.53,45.107-36.909,33.761-54.611c37.392-7.764,92.945-8.97,115.524-2.663
		C597.149,67.316,602.968,55.721,600.578,51.891 M117.991,70.477c-5.009-3.031-6.892-8.056-3.133-8.333
		C117.112,61.977,118.667,64.255,117.991,70.477 M158.69,109.923c-3.826-5.764-3.193-14.249-0.43-22.892
		c2.521-1.698,4.312-4.728,5.19-8.193c2.157,3.62,5.242,6.163,8.966,7.149c0.01,0.125,0.136,0.115,0.136,0.115
		C171.962,102.016,162.488,115.311,158.69,109.923 M173.672,75.69c-4.902-3.29-5.195-17.502-1.437-17.78
		C174.491,57.744,174.346,69.468,173.672,75.69 M229.754,70.923l-5.866,21.216c-18.994,41.331-8.819-54.645,10.027-36.512
		L229.754,70.923z M284.037,101.557c-3.686,8.082-12.445,5.453-10.81-3.108c1.009-5.112,4.925-6.661,10.628-9.6
		C285.037,92.919,285.987,97.256,284.037,101.557 M408.497,122.897c-2.677-3.834,0.771-21.975,6.521-43.056
		c2.134,1.605,5.36,2.628,9.609,2.187C425.371,97.216,415.645,129.297,408.497,122.897 M453.324,117.574l-0.009-0.125
		c-3.541-1.88,0.051-19.78,6.099-40.254C473.326,67.729,461.827,121.859,453.324,117.574"/>
</g>
</svg>
