<?xml version="1.0" encoding="utf-8"?>
<!-- Generator: Adobe Illustrator 17.1.0, SVG Export Plug-In . SVG Version: 6.00 Build 0)  -->
<!DOCTYPE svg PUBLIC "-//W3C//DTD SVG 1.1//EN" "http://www.w3.org/Graphics/SVG/1.1/DTD/svg11.dtd">
<svg version="1.1" id="Layer_1" xmlns="http://www.w3.org/2000/svg" xmlns:xlink="http://www.w3.org/1999/xlink" x="0px" y="0px"
	 viewBox="0 0 500 500" enable-background="new 0 0 500 500" xml:space="preserve">
<g>
	<path fill="#DA5647" d="M496.196,250c0-135.971-110.227-246.197-246.198-246.197S3.804,114.029,3.804,250
		s110.224,246.197,246.195,246.197S496.196,385.971,496.196,250"/>
	<path fill="#FFFFFF" d="M374.113,263.783c95.967-11.672,91.186,48.765,54.34,55.258c6.809-4.85-0.387-52.01-75.616-35.318
		c20.174,103.925-153.986,66.506-29.495-8.487c-4.818-14.002-9.463-22.236-8.518-43.728c-4.168,8.553-10.441,20.13-26.194,43.173
		c-3.151,4.658-5.657-6.357-5.657-6.357c11.203-15.695,27.599-50.135,34.121-61.741c5.047-9.415,43.173-21.852,37.148-1.754
		c-9.26,30.305-9.484,47.431-5.402,63.532C357.691,266.282,366.36,264.725,374.113,263.783 M333.146,321.576
		c3.924-8.526-0.226-23.112-2.875-31.089C294.126,307.209,318.797,352.494,333.146,321.576"/>
	<path fill="#FFFFFF" d="M261.433,334.586c-3.94-16.566-4.447-37.479,0.371-64.163c3.608-10.859,6.215-18.539,7.885-24.111
		c1.515-0.363,2.683-0.673,3.324-0.905c11.138-4.103,15.254-33.506,3.777-31.112c-0.479,0.1-75.682,25.187-96.735,27.017
		c-4.831,0.752-3.508,9.904-4.679,19.072c-0.2,2.078,33.621-2.927,61.636-7.79c-1.207,6.004-1.996,12.193-2.693,17.605
		c-17.644,80.8-77.389,100.64-88.298,70.546c-20.569-56.704,21.613-178.195,73.239-217.1c16.445,6.422,18.478,34.631,6.383,67.742
		c11.914,57.869,84.832-135.955-2.138-81.607c-57.199-38.353-95.896,69.076-107.778,125.935
		c-26.499,127.716,57.438,197.522,119.439,94.72c5.888,67.782,51.526,70.469,59.731,28.456
		C277.189,366.104,265.861,354.437,261.433,334.586"/>
</g>
</svg>
