<svg xmlns="http://www.w3.org/2000/svg" width="1150" height="1150" viewBox="0 0 1150 1150">
  <g fill="none" fill-rule="evenodd">
    <circle cx="575" cy="575" r="575" fill="#DA5647"/>
    <path fill="#FFFFFF" d="M319.177284,618.069852 L319.177284,537.086956 C319.394705,535.51043 319.769691,533.937425 319.808422,532.356498 C320.644659,497.738071 323.02045,463.254321 328.829213,429.070736 C334.673185,394.66973 343.965092,361.3884 361.214449,330.759261 C380.265675,296.926015 407.283154,271.527314 442.399803,254.886209 C473.659201,240.074261 506.923806,233.299866 541.179571,230.596621 C546.994495,230.138012 552.796215,229.535922 558.604977,228.99985 L604.377919,228.99985 C607.420939,229.288572 610.459558,229.623066 613.5061,229.856332 C623.296228,230.606304 633.115404,231.061393 642.874723,232.092164 C670.498693,235.009309 697.385015,241.3427 723.64812,250.321238 C731.480575,252.998075 739.184513,256.048137 746.983518,258.941515 C740.193278,307.597272 733.477859,355.724879 726.719309,404.164094 C696.586629,395.366007 666.324553,389.508831 635.463908,387.045895 C615.13368,385.422716 594.776164,384.380501 574.548925,388.355705 C549.02963,393.371363 530.008332,406.879662 519.055396,430.892851 C512.687675,444.855359 508.596278,459.581042 506.812894,474.707239 C504.327071,495.786559 502.109725,516.967107 501.31398,538.16174 C499.702244,581.0994 499.179376,624.088994 504.95733,666.831239 C507.946655,688.947492 512.654226,710.66059 523.269147,730.629036 C533.692174,750.234819 548.32279,764.170039 571.767339,765.466646 C581.054845,765.979831 590.393405,765.55115 599.634258,765.55115 L599.634258,671.61275 L552.725795,671.61275 L552.725795,525.64372 L762.822716,525.64372 L762.822716,896.228496 C746.345338,899.620975 729.892606,903.133168 713.387059,906.382167 C681.174352,912.721719 648.759187,917.563969 615.921503,919.229399 C587.324857,920.679169 558.785428,919.908952 530.262724,917.555166 C505.388652,915.500665 480.879002,911.580917 457.03218,904.02398 C413.277649,890.15918 379.881887,863.721786 358.323712,822.838627 C340.387761,788.82493 331.57911,752.079821 326.3073,714.395486 C322.059219,684.040104 320.206295,653.456737 319.821626,622.796789 C319.802261,621.218502 319.400867,619.645498 319.177284,618.069852"/>
  </g>
</svg>
